# xmcd CD database file
#
# Track frame offsets:
#	150
#	18507
#	44751
#	82569
#	114894
#	137245
#	148499
#	173535
#	201248
#	203824
#	240670
#	268230
#	304495
#	307757
#
# Disc length: 4283 seconds
#
# Revision: 0
# Processed by: cddbd v1.5.1PL0 Copyright (c) Steve Scherf et al.
# Submitted via: CDex 1.51
#
DISCID=c510b90e
DTITLE=El Tunel - Apto para instalaciones
DYEAR=2002
DGENRE=Jazz
TTITLE0=Buscando el nombre del juego
TTITLE1=Como un tajo 
TTITLE2=La cumbre
TTITLE3=Agua que corre 
TTITLE4=Apto para instalaciones
TTITLE5=Salva 
TTITLE6=Tartagal
TTITLE7=Desde aca 
TTITLE8=Perro milonguero
TTITLE9=Estas todo el dia sola 
TTITLE10=Ir
TTITLE11=S.O.S
TTITLE12=Bonus track
TTITLE13=No hay motivo para seguir buscando el sentido de tus palabras muertas
EXTD=YEAR: 2002
EXTT0=
EXTT1=
EXTT2=
EXTT3=
EXTT4=
EXTT5=
EXTT6=
EXTT7=
EXTT8=
EXTT9=
EXTT10=
EXTT11=
EXTT12=
EXTT13=
PLAYORDER=
